HIERARCHY
ROOT Hips
{
	OFFSET 0.00000 0.00000 0.00000
	CHANNELS 6 Xposition Yposition Zposition Yrotation Zrotation Xrotation 
	JOINT Lumbar
	{
		OFFSET 0 0 0
		CHANNELS 3 Zrotation Xrotation Yrotation
		JOINT Neck
		{
			OFFSET 0.00 0.2701 0.00
			CHANNELS 3 Zrotation Xrotation Yrotation
			End Site
			{
				OFFSET 0.00 0.1379 0.00
			}
		}
		JOINT RightShoulder
		{
			OFFSET 0.0119 0.2289 0.1181
			CHANNELS 3 Zrotation Xrotation Yrotation
			JOINT RightElbow
			{
				OFFSET 0.00 -0.1475 0.00
				CHANNELS 2 Zrotation Yrotation
				JOINT RightWrist
				{
					OFFSET 0.00 -0.1605 0.00
					CHANNELS 2 Zrotation Xrotation
					End Site
					{
						OFFSET 0.0040 -0.1068 0.0006
					}
				}
			}
		}
		JOINT LeftShoulder
		{
			OFFSET 0.0119 0.2289 -0.1181
			CHANNELS 3 Zrotation Xrotation Yrotation
			JOINT LeftElbow
			{
				OFFSET 0.00 -0.1475 0.00
				CHANNELS 2 Zrotation Yrotation
				JOINT LeftWrist
				{
					OFFSET 0.00 -0.1605 0.00
					CHANNELS 2 Zrotation Xrotation
					End Site
					{
						OFFSET 0.0040 -0.1068 -0.0006
					}
				}
			}
		}
	}
	JOINT RightHip
	{
		OFFSET 0.0316 -0.0424 0.0458
		CHANNELS 3 Zrotation Xrotation Yrotation
		JOINT RightKnee
		{
			OFFSET 0.00 -0.2438 0.00
			CHANNELS 1 Zrotation
			JOINT RightAnkle
			{
				OFFSET 0.00 -0.2449 0.00
				CHANNELS 3 Zrotation Xrotation Yrotation
				End Site
				{
					OFFSET 0.1237 -0.0542 0.0051
				}
			}
		}
	}
	JOINT LeftHip
	{
		OFFSET 0.0316 -0.0424 -0.0458
		CHANNELS 3 Zrotation Xrotation Yrotation
		JOINT LeftKnee
		{
			OFFSET 0.00 -0.2438 0.00
			CHANNELS 1 Zrotation
			JOINT LeftAnkle
			{
				OFFSET 0.00 -0.2449 0.00
				CHANNELS 3 Zrotation Xrotation Yrotation
				End Site
				{
					OFFSET 0.1237 -0.0542 -0.0051
				}
			}
		}
	}
}
MOTION
Frames: 16
Frame Time: 0.02
-0.0009 -0.00053 0.0005 14.32033 -22.04225 -5.15997 45.48107 3.60287 -5.25204 -5.34178 -8.64946 -0.14801 -25.01554 -12.20844 4.3054 42.21354 91.47097 6.66019 0.05908 -27.55633 11.86724 -2.38075 38.49326 -118.40598 17.72612 -3.38809 34.53527 -0.16401 -0.29268 -21.05439 -8.63185 -4.96738 -3.41316 36.90335 9.23915 3.49041 -27.04842 -9.09636 4.86807 3.38995
-0.00075 -0.0005 0.00028 14.2877 -22.04544 -5.15829 45.4733 3.60334 -5.27469 -5.37227 -8.63208 -0.14858 -25.07502 -12.20798 4.17889 42.06927 91.41275 6.63709 0.05989 -27.63029 11.89985 -2.3305 38.49769 -118.38968 17.72186 -3.38472 34.50905 -0.28306 -0.84896 -21.04356 -8.59143 -4.9221 -3.37884 36.87049 9.22974 3.54405 -27.03988 -9.10059 4.87637 3.39226
-0.0006 -0.00048 7e-05 14.25512 -22.04865 -5.15661 45.46557 3.60381 -5.29729 -5.4027 -8.6147 -0.14915 -25.13436 -12.20749 4.05265 41.9252 91.35477 6.61413 0.06069 -27.70396 11.93263 -2.28116 38.50244 -118.36794 17.71641 -3.38046 34.48292 -0.40177 -1.40357 -21.03277 -8.55113 -4.87693 -3.34462 36.8377 9.22029 3.59743 -27.03136 -9.10482 4.88465 3.39458
-0.00045 -0.00045 -0.00014 14.22258 -22.05184 -5.15493 45.45782 3.60427 -5.31987 -5.43309 -8.59737 -0.14971 -25.19367 -12.20703 3.92651 41.78133 91.29673 6.59111 0.06149 -27.77768 11.96518 -2.23119 38.50688 -118.35064 17.71194 -3.37692 34.45678 -0.52046 -1.95814 -21.02198 -8.51083 -4.83178 -3.31041 36.80494 9.2109 3.65089 -27.02285 -9.10905 4.89293 3.39688
-0.0003 -0.00043 -0.00035 14.19001 -22.05502 -5.15327 45.45004 3.60473 -5.34253 -5.46354 -8.58005 -0.15028 -25.25309 -12.20662 3.80014 41.63733 91.23845 6.56795 0.06232 -27.85175 11.99747 -2.18002 38.51097 -118.34127 17.70919 -3.3747 34.43057 -0.63945 -2.51436 -21.01117 -8.47042 -4.78652 -3.2761 36.77212 9.20156 3.70466 -27.01433 -9.11327 4.90121 3.39919
-0.00015 -0.00041 -0.00056 14.1574 -22.05828 -5.15156 45.44242 3.60524 -5.36498 -5.49394 -8.56254 -0.15085 -25.31225 -12.20594 3.67418 41.49314 91.18113 6.5454 0.06304 -27.92459 12.03131 -2.1345 38.51714 -118.29381 17.69814 -3.36621 34.40459 -0.75757 -3.06556 -21.0004 -8.43032 -4.74155 -3.24207 36.73942 9.1919 3.7572 -27.00582 -9.11752 4.90949 3.40152
-0 -0.00038 -0.00077 14.12493 -22.06138 -5.14993 45.43447 3.60562 -5.38781 -5.52435 -8.54544 -0.15141 -25.37189 -12.20581 3.54754 41.34949 91.12187 6.52163 0.06397 -27.99974 12.06196 -2.07775 38.51889 -118.3218 17.70353 -3.37011 34.37818 -0.87732 -3.62622 -20.98956 -8.38965 -4.69605 -3.20752 36.7065 9.18288 3.81214 -26.99729 -9.12171 4.91777 3.40379
0.00015 -0.00036 -0.00099 14.0923 -22.06462 -5.14824 45.42686 3.60614 -5.4103 -5.55486 -8.52797 -0.15198 -25.43106 -12.20516 3.42152 41.20536 91.06451 6.499 0.06473 -28.0729 12.09558 -2.03118 38.52513 -118.28249 17.69424 -3.36299 34.35217 -0.99557 -4.17822 -20.97879 -8.34951 -4.65103 -3.17345 36.67379 9.1733 3.86493 -26.98878 -9.12595 4.92605 3.40612
0.0003 -0.00033 -0.0012 14.05956 -22.06805 -5.14643 45.41949 3.60676 -5.43236 -5.5851 -8.51001 -0.15255 -25.48979 -12.20393 3.29621 41.06047 91.00905 6.47772 0.06519 -28.14311 12.13278 -1.99785 38.5353 -118.15085 17.66491 -3.34064 34.32661 -1.11202 -4.71964 -20.96808 -8.30999 -4.60659 -3.13996 36.64133 9.16292 3.91485 -26.98028 -9.13029 4.93435 3.40853
0.00045 -0.00031 -0.00141 14.0277 -22.07044 -5.14519 45.41021 3.60662 -5.45686 -5.6157 -8.49475 -0.15309 -25.55146 -12.20618 3.16669 40.91943 90.94137 6.44855 0.06708 -28.22873 12.14923 -1.89076 38.51816 -118.5201 17.74455 -3.40059 34.29834 -1.23896 -5.32195 -20.95695 -8.26682 -4.55879 -3.10309 36.60738 9.15677 3.98053 -26.97168 -9.13415 4.94258 3.4105
0.0006 -0.00028 -0.00162 13.99384 -22.075 -5.14281 45.40532 3.6082 -5.47622 -5.6463 -8.47386 -0.15371 -25.60667 -12.20101 3.04615 40.77063 90.9003 6.43608 0.06617 -28.28282 12.20951 -1.93767 38.56161 -117.85259 17.59848 -3.29042 34.27586 -1.34366 -5.79573 -20.94675 -8.23138 -4.51811 -3.07337 36.57661 9.14193 4.01344 -26.96333 -9.13899 4.95093 3.41338
0.00074 -0.00026 -0.00184 13.95554 -22.08566 -5.1366 45.40994 3.61356 -5.48109 -5.67118 -8.43721 -0.1545 -25.64604 -12.17562 2.94828 40.59716 90.93214 6.47084 0.05691 -28.24174 12.39139 -2.4253 38.74927 -114.14452 16.79159 -2.67934 34.26897 -1.38762 -5.91396 -20.93884 -8.21709 -4.49689 -3.06342 36.55426 9.10113 3.95142 -26.95515 -9.14665 4.95972 3.41888
0.00089 -0.00023 -0.00205 13.91501 -22.09846 -5.12933 45.41961 3.62085 -5.48083 -5.69745 -8.39513 -0.15537 -25.67848 -12.14246 2.85894 40.41645 90.99494 6.52297 0.04578 -28.17077 12.61731 -3.06439 39.00222 -109.43095 15.7655 -1.90356 34.26796 -1.4092 -5.90355 -20.93194 -8.21056 -4.48285 -3.06063 36.53514 9.05195 3.85738 -26.9473 -9.15525 4.96861 3.42527
0.00103 -0.0002 -0.00227 13.87483 -22.1102 -5.12302 45.42844 3.62782 -5.48322 -5.72637 -8.35555 -0.15622 -25.71299 -12.11318 2.76805 40.24135 91.03824 6.56517 0.03494 -28.11887 12.82186 -3.62212 39.23924 -105.30602 14.86704 -1.22565 34.26446 -1.44081 -5.95404 -20.92473 -8.20052 -4.46557 -3.05448 36.51475 9.00802 3.78128 -26.93963 -9.1633 4.97737 3.43118
0.00117 -0.00017 -0.00249 13.83754 -22.12236 -5.11483 45.43048 3.63233 -5.48441 -5.74006 -8.31518 -0.157 -25.75248 -12.08366 2.67085 40.05676 91.08715 6.61248 0.02315 -28.04302 13.03111 -4.23232 39.41694 -100.6258 13.85079 -0.45097 34.26018 -1.47293 -5.99448 -20.91683 -8.19043 -4.44816 -3.04877 36.49358 8.95814 3.69089 -26.93057 -9.17187 4.98647 3.4374
0.00131 -0.00014 -0.00269 13.79357 -22.13411 -5.11013 45.44867 3.64256 -5.48666 -5.78753 -8.27598 -0.15796 -25.77943 -12.05121 2.58446 39.88982 91.15352 6.65769 0.01706 -28.0109 13.24241 -4.77007 39.73545 -96.8605 13.02679 0.16215 34.25897 -1.49875 -6.02475 -20.91069 -8.18227 -4.43275 -3.04385 36.47474 8.91845 3.62256 -26.9245 -9.1796 4.99491 3.44321
